<?xml version="1.0" encoding="utf-8"?>
<!-- Svg Vector Icons : http://www.onlinewebfonts.com/icon -->
<!DOCTYPE svg PUBLIC "-//W3C//DTD SVG 1.1//EN" "http://www.w3.org/Graphics/SVG/1.1/DTD/svg11.dtd">
<svg version="1.1" xmlns="http://www.w3.org/2000/svg" xmlns:xlink="http://www.w3.org/1999/xlink" x="0px" y="0px" viewBox="0 0 1000 1000" enable-background="new 0 0 1000 1000" xml:space="preserve">
<metadata> Svg Vector Icons : http://www.onlinewebfonts.com/icon </metadata>
<g><path d="M213.1,990c-32.2,0-58.4-26.2-58.4-58.3V163.7c0-32.1,26.2-58.2,58.4-58.2h154v55.5H245c-20.5,0-37.2,16.7-37.2,37.2v701.8c0,20.5,16.7,37.2,37.2,37.2h510c20.5,0,37.3-16.7,37.3-37.2l0-701.8c0-20.5-16.7-37.2-37.2-37.2H632.9v-55.5h154c32.2,0,58.4,26.1,58.4,58.2v768.1c0,32.1-26.2,58.3-58.4,58.3H213.1z M377.9,860.8v-21.1h339.8v21.1H377.9z M282.3,860.1v-21h21.1v21H282.3z M377.9,765.3v-21.1h339.8v21.1H377.9z M282.3,764.6v-21h21.1v21H282.3z M377.9,669.9v-21h339.8v21H377.9z M282.3,669.2v-21h21.1v21H282.3z M377.9,574.5v-21.1h339.8v21.1H377.9z M282.3,573.8v-21h21.1v21H282.3z M377.9,479.1V458h339.8v21.1H377.9z M282.3,478.4v-21h21.1v21H282.3z M377.9,383.6v-21h339.8v21H377.9z M282.3,382.9v-21h21.1v21H282.3z M282.3,288.2V232c0-14.6,11.9-26.5,26.5-26.5h100.9l0-5.3c0,0,0.4-45.3,0.4-97c0-51.4,40.3-93.2,89.8-93.2c49.5,0,91.3,42.8,91.3,93.5c0,55.6-1,96.4-1,96.5l-0.1,5.5h101.1c14.6,0,26.5,11.9,26.5,26.5v56.2H282.3z M500,94.7c-20.5,0-37.3,16.7-37.3,37.2c0,20.5,16.7,37.2,37.3,37.2c20.6,0,37.3-16.7,37.3-37.2C537.3,111.4,520.5,94.7,500,94.7z"/></g>
</svg>