<?xml version="1.0" standalone="no"?>
<!DOCTYPE svg PUBLIC "-//W3C//DTD SVG 20010904//EN"
 "http://www.w3.org/TR/2001/REC-SVG-20010904/DTD/svg10.dtd">
<svg version="1.0" xmlns="http://www.w3.org/2000/svg"
 width="1200.000000pt" height="2195.000000pt" viewBox="0 0 1200.000000 2195.000000"
 preserveAspectRatio="xMidYMid meet">

<g transform="translate(0.000000,2195.000000) scale(0.100000,-0.100000)"
fill="#000000" stroke="none">
<path d="M10107 13750 c-187 -23 -415 -90 -488 -141 -49 -35 -119 -99 -119
-110 0 -4 35 4 77 17 199 61 363 83 497 65 394 -53 713 -324 797 -678 30 -125
23 -318 -15 -448 -74 -248 -255 -520 -503 -755 -260 -246 -651 -517 -1070
-740 -51 -28 -87 -55 -98 -73 -17 -28 -17 -29 1 -23 11 3 75 22 144 41 569
163 1103 407 1443 659 376 277 596 565 689 901 25 90 36 319 19 408 -39 202
-134 382 -280 527 -171 169 -380 279 -633 331 -116 23 -350 33 -461 19z"/>
<path d="M4010 13609 c-605 -46 -1268 -222 -1863 -495 -315 -145 -411 -240
-353 -353 73 -140 539 -273 1226 -350 522 -59 1007 -82 1735 -82 895 -1 1621
42 2413 141 550 69 1295 214 1387 269 17 10 73 45 125 76 52 32 183 103 290
157 107 54 184 96 170 93 -152 -33 -1042 -161 -1455 -209 -1678 -196 -3727
-231 -4483 -75 -283 58 -393 126 -367 226 34 139 544 358 1290 554 105 28 195
52 200 54 19 7 -201 2 -315 -6z"/>
<path d="M3605 11886 c-328 -121 -559 -267 -625 -396 -181 -349 627 -654 1935
-730 221 -13 868 -13 1105 0 819 44 1545 153 2280 341 151 39 285 73 298 76
30 7 28 19 -5 28 -37 9 -226 104 -298 150 -75 48 -204 146 -229 174 -11 11
-27 21 -38 21 -10 0 -116 -18 -236 -39 -1332 -241 -2274 -283 -3557 -161 -441
43 -617 100 -681 222 -18 35 -18 106 0 150 18 43 99 151 133 178 34 27 24 25
-82 -14z"/>
<path d="M3945 10266 c-211 -72 -349 -144 -446 -233 -76 -71 -103 -120 -103
-193 -1 -73 29 -134 104 -207 335 -330 1337 -552 2390 -530 847 18 1636 171
2353 455 64 25 117 49 117 52 0 3 -33 18 -73 34 -146 60 -426 194 -571 275
l-150 84 -230 -41 c-1081 -193 -1661 -214 -2716 -101 -461 49 -667 121 -686
241 -8 48 16 96 76 152 27 26 46 46 42 46 -4 0 -52 -16 -107 -34z"/>
<path d="M2366 9230 c-572 -66 -1266 -316 -1591 -575 -124 -98 -184 -189 -185
-278 0 -57 16 -90 67 -138 157 -149 437 -218 1418 -348 1553 -207 3261 -268
4745 -171 1587 104 2927 368 3615 713 144 72 220 122 299 196 106 102 135 181
97 267 -32 72 -73 110 -196 184 l-40 25 19 -30 c52 -80 68 -154 46 -219 -29
-90 -144 -188 -305 -261 -991 -452 -4853 -683 -7180 -430 -683 75 -1213 186
-1503 316 -160 72 -198 148 -121 242 134 163 734 384 1159 427 58 6 130 14
160 17 52 5 53 6 30 18 -84 44 -348 66 -534 45z"/>
<path d="M11440 8277 c-30 -33 -102 -91 -160 -129 -649 -435 -2280 -790 -4195
-913 -486 -31 -654 -36 -1305 -42 -1178 -10 -2100 42 -2974 168 -115 16 -211
28 -213 26 -7 -8 155 -76 252 -106 522 -161 1344 -260 2485 -301 356 -13 1297
-13 1650 0 2543 92 4163 520 4465 1181 21 48 59 171 52 174 -1 0 -27 -26 -57
-58z"/>
<path d="M997 3873 c-3 -1524 -7 -2161 -16 -2243 -16 -166 -48 -323 -82 -411
-81 -210 -289 -435 -546 -590 l-83 -51 78 -91 c43 -51 119 -140 169 -198 l90
-106 84 37 c349 150 631 380 803 654 108 171 164 347 203 631 15 108 17 342
20 2308 l4 2187 -360 0 -360 0 -4 -2127z"/>
<path d="M3480 4844 c-310 -27 -615 -96 -886 -200 -65 -25 -131 -50 -146 -56
-16 -5 -28 -15 -28 -21 0 -7 21 -103 47 -213 l47 -201 101 34 c370 124 772
184 1040 153 303 -34 464 -150 532 -381 11 -40 17 -117 20 -291 l5 -238 -153
0 c-749 -1 -1241 -140 -1535 -434 -131 -130 -211 -271 -255 -448 -26 -107 -37
-341 -20 -459 73 -504 453 -770 1066 -746 329 13 598 121 898 360 48 38 90 68
92 66 2 -2 11 -56 20 -119 9 -63 21 -143 27 -177 l10 -63 269 0 269 0 0 1224
c0 774 -4 1262 -10 1327 -49 489 -326 770 -850 864 -92 16 -451 28 -560 19z
m730 -2258 l0 -404 -42 -37 c-119 -102 -312 -212 -453 -258 -217 -71 -432 -58
-577 34 -148 94 -229 284 -213 501 22 317 218 489 625 547 117 17 129 18 403
19 l257 2 0 -404z"/>
<path d="M9760 4839 c-225 -22 -461 -71 -675 -139 -86 -28 -324 -117 -333
-125 -3 -3 65 -300 88 -385 l10 -36 112 38 c357 117 741 175 1000 150 68 -7
150 -19 183 -28 152 -40 266 -124 328 -242 56 -106 67 -168 74 -418 l6 -221
-269 -6 c-410 -10 -662 -46 -906 -127 -431 -144 -688 -396 -780 -767 -19 -74
-22 -116 -22 -263 1 -232 28 -353 119 -516 47 -85 177 -217 260 -265 193 -112
407 -157 690 -146 333 13 610 124 909 365 43 35 80 61 83 58 3 -2 17 -84 31
-180 l26 -176 268 0 268 0 0 1263 c0 1351 0 1359 -50 1522 -53 171 -173 339
-316 441 -123 88 -294 153 -494 189 -114 20 -468 28 -610 14z m790 -2253 l0
-405 -107 -81 c-128 -96 -331 -201 -448 -231 -241 -61 -467 -18 -600 114 -94
94 -135 214 -135 392 0 251 88 401 292 499 126 59 220 83 443 109 17 2 148 5
293 6 l262 1 0 -404z"/>
<path d="M5322 4776 c2 -8 235 -768 518 -1690 l515 -1676 431 0 430 0 19 38
c329 678 685 1748 899 2702 34 153 126 613 126 631 0 6 -140 8 -362 7 l-363
-3 -12 -90 c-83 -597 -232 -1264 -428 -1909 -72 -238 -222 -687 -234 -699 -4
-4 -40 135 -81 310 -65 285 -106 425 -394 1353 l-321 1035 -373 3 c-317 2
-373 0 -370 -12z"/>
<path d="M11310 4770 c0 -17 7 -20 40 -20 l40 0 0 -115 c0 -108 1 -115 20
-115 19 0 20 7 20 115 l0 115 45 0 c38 0 45 3 45 20 0 19 -7 20 -105 20 -98 0
-105 -1 -105 -20z"/>
<path d="M11570 4656 c0 -129 1 -136 20 -136 19 0 20 7 20 105 0 58 4 105 9
105 4 0 26 -47 47 -105 28 -76 43 -105 53 -103 10 2 32 46 56 111 l40 108 3
-110 c3 -111 3 -111 27 -111 l25 0 0 136 0 135 -37 -3 c-37 -3 -37 -3 -72 -95
-20 -51 -39 -93 -42 -93 -3 0 -22 42 -42 93 -35 91 -35 92 -71 95 l-36 3 0
-135z"/>
</g>
</svg>
