<?xml version="1.0" encoding="utf-8"?>
<!-- Svg Vector Icons : http://www.onlinewebfonts.com/icon -->
<!DOCTYPE svg PUBLIC "-//W3C//DTD SVG 1.1//EN" "http://www.w3.org/Graphics/SVG/1.1/DTD/svg11.dtd">
<svg version="1.1" xmlns="http://www.w3.org/2000/svg" xmlns:xlink="http://www.w3.org/1999/xlink" x="0px" y="0px" viewBox="0 0 1000 1000" enable-background="new 0 0 1000 1000" xml:space="preserve">
<metadata> Svg Vector Icons : http://www.onlinewebfonts.com/icon </metadata>
<g><path d="M744.7,500.2c38.5,51.2,61.6,114.6,61.6,183.6C806.3,852.9,669.2,990,500,990c-169.1,0-306.2-137.1-306.2-306.2c0-69,23-132.5,61.5-183.6L10,193.7L163.1,11.9V10h1.7h86.6h497.3h86.6h1.7v1.9L990,193.7L744.7,500.2L744.7,500.2z M255,683.8c0,135.3,109.7,245,245,245c135.4,0,245-109.7,245-245c0-135.3-109.6-245.1-245-245.1C364.7,438.7,255,548.5,255,683.8L255,683.8z M373.5,255l84.1,126.2c14-2,28-3.7,42.4-3.7c14.5,0,28.5,1.8,42.4,3.7L626.5,255H373.5L373.5,255z M102,193.7L307.1,446c25.9-21,55.3-37.7,87.1-49.6L188.3,87.5L102,193.7L102,193.7z M251,71.2l81.7,122.5h334.7L749,71.2H251L251,71.2z M811.8,87.5L605.9,396.5c31.8,11.8,61.2,28.6,87.2,49.6l205-252.3L811.8,87.5L811.8,87.5z"/></g>
</svg>