<?xml version="1.0" standalone="no"?>
<!DOCTYPE svg PUBLIC "-//W3C//DTD SVG 20010904//EN"
 "http://www.w3.org/TR/2001/REC-SVG-20010904/DTD/svg10.dtd">
<svg version="1.0" xmlns="http://www.w3.org/2000/svg"
 width="512.000000pt" height="512.000000pt" viewBox="0 0 512.000000 512.000000"
 preserveAspectRatio="xMidYMid meet">

<g transform="translate(0.000000,512.000000) scale(0.100000,-0.100000)"
fill="#000000" stroke="none">
<path d="M1072 4943 c-13 -11 -87 -183 -186 -433 l-166 -415 0 -927 0 -928
-54 0 c-36 0 -61 -6 -75 -17 -16 -14 -72 -182 -226 -674 l-205 -657 0 -341 0
-342 25 -24 24 -25 271 0 271 0 24 25 c24 23 25 29 25 160 l0 135 720 0 720 0
0 -135 c0 -131 1 -137 25 -160 l24 -25 271 0 271 0 24 25 c24 23 25 29 25 160
l0 135 720 0 720 0 0 -135 c0 -131 1 -137 25 -160 l24 -25 271 0 271 0 24 25
25 24 0 342 0 341 -205 657 c-154 492 -210 660 -226 674 -14 11 -39 17 -75 17
l-54 0 0 928 0 927 -166 415 c-99 250 -173 422 -186 433 -19 16 -105 17 -1488
17 -1383 0 -1469 -1 -1488 -17z m1408 -263 l0 -120 -701 0 c-557 0 -700 3
-696 13 3 6 24 60 48 120 l42 107 654 0 653 0 0 -120z m1509 13 c24 -60 45
-114 48 -120 4 -10 -139 -13 -696 -13 l-701 0 0 120 0 120 653 0 654 0 42
-107z m-1509 -413 l0 -120 -781 0 c-621 0 -780 3 -776 13 3 6 24 60 48 120
l42 107 734 0 733 0 0 -120z m1669 13 c24 -60 45 -114 48 -120 4 -10 -155 -13
-776 -13 l-781 0 0 120 0 120 733 0 734 0 42 -107z m-1669 -1013 l0 -720 -800
0 -800 0 0 720 0 720 800 0 800 0 0 -720z m1760 0 l0 -720 -800 0 -800 0 0
720 0 720 800 0 800 0 0 -720z m-1760 -1600 l0 -720 -800 0 -800 0 0 720 0
720 800 0 800 0 0 -720z m1760 0 l0 -720 -800 0 -800 0 0 720 0 720 800 0 800
0 0 -720z m-3520 320 l0 -80 -36 0 c-28 0 -35 3 -30 15 3 9 13 41 22 73 19 66
22 72 35 72 5 0 9 -36 9 -80z m3727 -1 c12 -41 23 -75 23 -76 0 -2 -16 -3 -35
-3 l-35 0 0 81 c0 102 15 101 47 -2z m-3727 -319 l0 -80 -86 0 c-73 0 -85 2
-80 15 3 9 13 41 22 73 9 31 18 60 21 65 2 4 31 7 64 7 l59 0 0 -80z m3827 0
c12 -41 23 -76 23 -77 0 -2 -38 -3 -85 -3 l-85 0 0 80 0 81 62 -3 61 -3 24
-75z m-3827 -320 l0 -80 -136 0 c-118 0 -135 2 -130 15 3 9 13 41 22 73 9 31
18 60 21 65 2 4 53 7 114 7 l109 0 0 -80z m3927 0 c12 -41 23 -76 23 -77 0 -2
-61 -3 -135 -3 l-135 0 0 80 0 81 112 -3 111 -3 24 -75z m-3927 -320 l0 -80
-186 0 c-163 0 -185 2 -180 15 3 9 13 41 22 73 9 31 18 60 21 65 2 4 76 7 164
7 l159 0 0 -80z m4027 0 c12 -41 23 -76 23 -77 0 -2 -83 -3 -185 -3 l-185 0 0
80 0 80 162 -2 161 -3 24 -75z m53 -320 l0 -80 -2240 0 -2240 0 0 80 0 80
2240 0 2240 0 0 -80z m-4160 -320 l0 -80 -160 0 -160 0 0 80 0 80 160 0 160 0
0 -80z m2080 0 l0 -80 -160 0 -160 0 0 80 0 80 160 0 160 0 0 -80z m2080 0 l0
-80 -160 0 -160 0 0 80 0 80 160 0 160 0 0 -80z"/>
<path d="M1065 3815 l-25 -24 0 -231 0 -231 25 -24 24 -25 271 0 271 0 24 25
25 24 0 231 0 231 -25 24 -24 25 -271 0 -271 0 -24 -25z m455 -255 l0 -120
-160 0 -160 0 0 120 0 120 160 0 160 0 0 -120z"/>
<path d="M2000 3040 l0 -80 160 0 160 0 0 80 0 80 -160 0 -160 0 0 -80z"/>
<path d="M2000 2800 l0 -80 160 0 160 0 0 80 0 80 -160 0 -160 0 0 -80z"/>
<path d="M2825 3815 l-25 -24 0 -231 0 -231 25 -24 24 -25 271 0 271 0 24 25
25 24 0 231 0 231 -25 24 -24 25 -271 0 -271 0 -24 -25z m455 -255 l0 -120
-160 0 -160 0 0 120 0 120 160 0 160 0 0 -120z"/>
<path d="M3760 3040 l0 -80 160 0 160 0 0 80 0 80 -160 0 -160 0 0 -80z"/>
<path d="M3760 2800 l0 -80 160 0 160 0 0 80 0 80 -160 0 -160 0 0 -80z"/>
<path d="M1065 2215 l-25 -24 0 -231 0 -231 25 -24 24 -25 271 0 271 0 24 25
25 24 0 231 0 231 -25 24 -24 25 -271 0 -271 0 -24 -25z m455 -255 l0 -120
-160 0 -160 0 0 120 0 120 160 0 160 0 0 -120z"/>
<path d="M2000 1440 l0 -80 160 0 160 0 0 80 0 80 -160 0 -160 0 0 -80z"/>
<path d="M2000 1200 l0 -80 160 0 160 0 0 80 0 80 -160 0 -160 0 0 -80z"/>
<path d="M2825 2215 l-25 -24 0 -231 0 -231 25 -24 24 -25 271 0 271 0 24 25
25 24 0 231 0 231 -25 24 -24 25 -271 0 -271 0 -24 -25z m455 -255 l0 -120
-160 0 -160 0 0 120 0 120 160 0 160 0 0 -120z"/>
<path d="M3760 1440 l0 -80 160 0 160 0 0 80 0 80 -160 0 -160 0 0 -80z"/>
<path d="M3760 1200 l0 -80 160 0 160 0 0 80 0 80 -160 0 -160 0 0 -80z"/>
</g>
</svg>
