<?xml version="1.0" standalone="no"?>
<!DOCTYPE svg PUBLIC "-//W3C//DTD SVG 20010904//EN"
 "http://www.w3.org/TR/2001/REC-SVG-20010904/DTD/svg10.dtd">
<svg version="1.0" xmlns="http://www.w3.org/2000/svg"
 width="394.000000pt" height="455.000000pt" viewBox="0 0 394.000000 455.000000"
 preserveAspectRatio="xMidYMid meet">

<g transform="translate(0.000000,455.000000) scale(0.100000,-0.100000)"
fill="#000000" stroke="none">
<path d="M1938 4500 c-1 -5 -67 -13 -145 -16 -105 -5 -143 -11 -147 -21 -3 -7
-20 -13 -41 -13 -19 0 -35 -4 -35 -10 0 -5 -13 -10 -30 -10 -20 0 -30 -5 -30
-15 0 -9 -9 -15 -25 -15 -16 0 -25 -6 -25 -15 0 -8 -5 -15 -11 -15 -17 0 -39
-27 -39 -50 0 -11 -7 -23 -15 -26 -11 -4 -15 -21 -15 -55 0 -37 -4 -49 -15
-49 -13 0 -15 -24 -15 -160 l0 -160 344 0 c383 0 356 5 356 -71 l0 -39 -519 0
c-452 0 -520 -2 -525 -15 -3 -9 -19 -15 -41 -15 -19 0 -35 -4 -35 -10 0 -5
-13 -10 -30 -10 -16 0 -30 -5 -30 -11 0 -14 -55 -69 -69 -69 -6 0 -11 -5 -11
-11 0 -7 -11 -22 -25 -35 -14 -13 -25 -32 -25 -44 0 -11 -7 -20 -15 -20 -9 0
-15 -9 -15 -25 0 -14 -4 -25 -10 -25 -5 0 -10 -25 -10 -55 0 -42 -3 -55 -15
-55 -12 0 -15 -16 -15 -80 0 -64 -3 -80 -15 -80 -13 0 -15 -23 -15 -145 0
-122 2 -145 15 -145 12 0 15 -14 15 -64 0 -39 4 -66 11 -68 6 -2 14 -27 17
-56 2 -29 8 -52 13 -52 5 0 9 -22 9 -50 0 -38 4 -50 15 -50 8 0 15 -7 15 -15
0 -8 4 -15 9 -15 5 0 12 -11 15 -25 4 -14 11 -25 16 -25 6 0 10 -7 10 -15 0
-8 7 -15 15 -15 8 0 15 -7 15 -15 0 -8 7 -15 15 -15 8 0 15 -4 15 -10 0 -5 9
-10 20 -10 11 0 23 -7 26 -15 4 -10 20 -15 45 -15 28 0 39 -4 39 -15 0 -13 23
-15 145 -15 l145 0 0 225 c0 143 4 225 10 225 6 0 10 14 10 30 0 20 5 30 15
30 9 0 15 9 15 25 0 16 6 25 15 25 8 0 15 7 15 15 0 8 5 15 10 15 6 0 10 7 10
15 0 8 7 15 15 15 8 0 15 5 15 10 0 6 7 10 15 10 8 0 15 4 15 10 0 19 35 50
57 50 13 0 23 5 23 10 0 6 11 10 25 10 16 0 25 6 25 15 0 13 54 15 424 15 382
0 424 2 430 16 5 13 15 15 42 11 25 -4 37 -2 41 9 3 7 16 14 29 14 15 0 24 6
24 15 0 9 9 15 25 15 16 0 25 6 25 15 0 8 7 15 15 15 8 0 15 9 15 20 0 11 5
20 10 20 6 0 10 7 10 15 0 9 7 18 15 21 8 4 15 17 15 29 0 13 7 30 15 39 13
12 15 75 15 434 0 364 -2 421 -15 426 -8 3 -15 17 -15 31 0 14 -4 25 -10 25
-5 0 -12 11 -16 25 -3 14 -10 25 -15 25 -5 0 -9 7 -9 15 0 8 -5 15 -11 15 -14
0 -69 55 -69 69 0 6 -18 11 -40 11 -22 0 -40 5 -40 10 0 6 -11 10 -25 10 -14
0 -28 6 -31 13 -4 10 -42 16 -147 21 -78 3 -143 11 -145 16 -2 6 -43 10 -92
10 -49 0 -90 -4 -92 -10z m-192 -234 c33 -33 34 -37 34 -110 0 -61 -3 -76 -15
-76 -8 0 -15 -7 -15 -15 0 -8 -7 -15 -15 -15 -8 0 -15 -4 -15 -10 0 -6 -28
-10 -65 -10 -37 0 -65 4 -65 10 0 6 -7 10 -15 10 -8 0 -15 7 -15 15 0 8 -7 15
-15 15 -9 0 -15 9 -15 25 0 14 -4 25 -10 25 -5 0 -10 14 -10 30 0 17 5 30 10
30 6 0 10 10 10 23 0 22 31 57 50 57 6 0 10 7 10 15 0 12 13 15 61 15 56 0 64
-3 95 -34z"/>
<path d="M2008 1493 c-10 -2 -18 -9 -18 -14 0 -5 -11 -9 -25 -9 l-25 0 0 -545
0 -545 50 0 50 0 0 280 c0 242 2 280 15 280 8 0 15 4 15 9 0 5 11 12 25 15 14
4 25 11 25 16 0 6 14 10 30 10 20 0 30 5 30 15 0 11 13 15 54 15 35 0 60 -5
70 -15 8 -8 19 -15 25 -15 6 0 11 -5 11 -11 0 -6 7 -18 16 -26 10 -10 13 -25
9 -40 -4 -16 -1 -25 10 -29 13 -5 15 -36 15 -204 0 -149 -3 -200 -12 -204 -10
-5 -10 -7 0 -12 6 -3 12 -23 12 -45 0 -39 0 -39 40 -39 l40 0 0 305 c0 211 -3
305 -11 305 -14 0 -69 55 -69 69 0 7 -41 11 -120 11 -100 0 -120 -2 -120 -15
0 -9 -9 -15 -24 -15 -13 0 -27 -7 -30 -16 -3 -9 -15 -14 -28 -12 l-23 3 -3
243 c-1 133 -6 241 -10 241 -4 -1 -15 -3 -24 -6z"/>
<path d="M1590 1295 c0 -9 -9 -15 -25 -15 l-25 0 0 -105 0 -105 -40 0 c-36 0
-40 -3 -40 -24 0 -21 5 -25 38 -28 l37 -3 3 -267 c1 -154 6 -268 11 -268 6 0
13 -10 16 -21 4 -12 20 -35 36 -50 24 -23 39 -29 75 -29 30 0 46 -5 50 -15 8
-19 24 -19 24 0 0 8 5 15 10 15 6 0 10 5 10 11 0 21 -29 39 -64 39 -20 0 -36
5 -36 11 0 6 -7 17 -15 26 -13 13 -15 54 -13 281 l3 267 63 3 c58 3 62 4 62
27 0 24 -3 25 -65 25 l-65 0 0 120 0 120 -25 0 c-16 0 -25 -6 -25 -15z"/>
<path d="M230 1080 c0 -5 -18 -10 -40 -10 -29 0 -40 -4 -40 -15 0 -8 -9 -15
-20 -15 -12 0 -31 -11 -44 -25 -13 -14 -28 -25 -35 -25 -6 0 -11 -7 -11 -15 0
-8 -4 -15 -10 -15 -7 0 -10 -155 -10 -445 0 -432 1 -446 20 -465 11 -11 33
-20 50 -20 l30 0 0 184 0 184 24 6 c27 7 56 -1 56 -15 0 -5 18 -9 40 -9 27 0
43 -5 46 -15 4 -11 21 -15 55 -15 37 0 49 4 49 15 0 11 11 15 40 15 29 0 40 4
40 15 0 8 5 15 10 15 13 0 70 57 70 70 0 6 5 10 10 10 6 0 10 9 10 20 0 11 7
23 15 26 11 5 15 21 15 60 0 41 4 54 15 54 12 0 15 15 15 75 0 60 -3 75 -15
75 -12 0 -15 13 -15 55 0 42 -3 55 -15 55 -9 0 -15 9 -15 25 0 14 -4 25 -10
25 -5 0 -10 7 -10 15 0 8 -5 15 -11 15 -14 0 -69 55 -69 69 0 6 -13 11 -30 11
-16 0 -30 5 -30 10 0 6 -37 10 -90 10 -53 0 -90 -4 -90 -10z m206 -96 c19 -19
34 -44 34 -54 0 -10 6 -20 13 -22 9 -3 13 -45 15 -150 3 -122 1 -148 -12 -161
-9 -8 -16 -27 -16 -41 0 -14 -4 -26 -10 -26 -5 0 -10 -7 -10 -16 0 -10 -16
-32 -35 -50 -32 -32 -37 -34 -110 -34 -41 0 -75 4 -75 9 0 5 -11 12 -25 15
-14 4 -25 11 -25 16 0 6 -7 10 -15 10 -8 0 -15 7 -15 15 0 8 -7 15 -15 15 -13
0 -15 32 -15 225 0 193 2 225 15 225 8 0 15 7 15 15 0 9 9 15 25 15 16 0 25 6
25 15 0 12 18 15 101 15 l102 0 33 -36z"/>
<path d="M2840 1080 c0 -5 -16 -10 -35 -10 -24 0 -35 -5 -35 -15 0 -8 -5 -15
-10 -15 -6 0 -21 -11 -34 -25 -13 -14 -28 -25 -35 -25 -6 0 -11 -11 -11 -25 0
-14 -4 -25 -10 -25 -5 0 -10 -13 -10 -29 0 -16 -7 -36 -15 -45 -12 -11 -15
-41 -15 -131 0 -90 3 -120 15 -131 8 -9 15 -26 15 -40 0 -13 4 -24 9 -24 5 0
12 -11 15 -25 7 -27 79 -105 96 -105 6 0 10 -7 10 -15 0 -10 10 -15 29 -15 16
0 36 -7 45 -15 21 -21 136 -21 136 0 0 10 10 15 30 15 17 0 30 4 30 9 0 5 10
13 22 17 26 8 48 28 48 43 0 6 6 11 14 11 8 0 17 11 20 25 4 14 11 25 16 25 6
0 10 11 10 25 0 14 5 25 10 25 6 0 10 13 10 29 0 16 7 36 15 45 18 17 22 196
5 196 -5 0 -13 18 -16 40 -4 22 -10 40 -15 40 -5 0 -9 11 -9 25 0 16 -6 25
-15 25 -9 0 -15 9 -15 24 0 17 -7 26 -25 30 -14 4 -25 11 -25 16 0 6 -7 10
-15 10 -8 0 -15 7 -15 15 0 9 -9 15 -25 15 -14 0 -25 5 -25 10 0 6 -38 10 -95
10 -57 0 -95 -4 -95 -10z m170 -75 c0 -9 9 -15 25 -15 20 0 25 -5 25 -25 0
-16 6 -25 15 -25 8 0 15 -7 15 -15 0 -8 5 -15 10 -15 6 0 10 -24 10 -54 0 -34
5 -56 12 -58 9 -3 13 -31 13 -88 0 -57 -4 -85 -13 -88 -7 -2 -12 -21 -12 -43
0 -21 -4 -39 -9 -39 -5 0 -12 -12 -15 -26 -8 -32 -24 -49 -54 -58 -12 -4 -22
-12 -22 -17 0 -5 -36 -9 -81 -9 -76 0 -82 2 -110 29 -16 16 -29 39 -29 50 0
12 -6 21 -15 21 -10 0 -15 10 -15 30 0 20 -5 30 -15 30 -13 0 -15 21 -15 130
0 107 3 132 15 136 9 4 15 19 15 40 0 22 6 37 15 40 8 4 15 10 15 16 0 13 26
38 39 38 6 0 11 7 11 15 0 12 16 15 85 15 69 0 85 -3 85 -15z"/>
<path d="M3590 1080 c0 -5 -18 -10 -40 -10 -29 0 -40 -4 -40 -15 0 -9 -9 -15
-25 -15 -14 0 -25 -4 -25 -9 0 -5 -11 -12 -25 -15 -14 -4 -25 -11 -25 -16 0
-6 -7 -10 -15 -10 -13 0 -15 -41 -15 -305 l0 -305 50 0 50 0 0 305 0 305 30 0
c20 0 30 5 30 15 0 12 18 15 105 15 87 0 105 -3 105 -15 0 -8 7 -15 15 -15 8
0 15 -5 15 -11 0 -6 7 -17 15 -25 8 -9 15 -26 15 -40 0 -13 5 -24 10 -24 14 0
13 -267 -1 -272 -7 -2 -12 -45 -13 -121 l-1 -117 53 0 52 0 0 310 0 309 -35
36 c-20 19 -45 35 -55 35 -11 0 -20 5 -20 10 0 6 -42 10 -105 10 -63 0 -105
-4 -105 -10z"/>
<path d="M770 1058 c-3 -137 -12 -254 -20 -256 -15 -5 -13 -159 2 -164 7 -3
12 -31 12 -76 1 -50 5 -72 14 -72 7 0 12 -13 12 -30 0 -16 5 -30 11 -30 7 0
22 -11 35 -25 16 -17 34 -25 58 -25 19 0 41 -7 50 -15 20 -20 86 -20 86 0 0
11 12 15 49 15 27 0 51 5 53 11 2 5 22 13 46 16 l42 6 0 -97 c0 -77 -3 -98
-15 -102 -8 -4 -15 -15 -15 -26 0 -34 -54 -78 -94 -78 -25 0 -36 -4 -36 -15 0
-12 -13 -15 -55 -15 -52 0 -55 -1 -55 -25 0 -25 1 -25 89 -25 70 0 90 3 95 15
3 8 17 15 31 15 16 0 25 6 25 15 0 9 9 15 25 15 14 0 25 5 25 10 0 6 7 10 15
10 9 0 15 9 15 24 0 13 5 26 12 28 7 3 12 25 13 53 0 29 6 50 13 53 9 3 12 98
12 403 l0 399 -50 0 -50 0 0 -295 0 -295 -30 0 c-16 0 -30 -4 -30 -10 0 -5
-11 -12 -25 -16 -14 -3 -25 -10 -25 -15 0 -5 -34 -9 -75 -9 -73 0 -78 2 -110
34 -19 18 -35 40 -35 50 0 9 -4 16 -10 16 -6 0 -10 33 -10 79 0 62 -3 80 -16
85 -11 4 -13 13 -8 28 3 13 11 24 15 26 5 2 9 75 9 163 l0 159 -50 0 c-33 0
-50 -4 -50 -12z"/>
</g>
</svg>
